<?xml version="1.0" standalone="no"?><!DOCTYPE svg PUBLIC "-//W3C//DTD SVG 1.1//EN" "http://www.w3.org/Graphics/SVG/1.1/DTD/svg11.dtd"><svg t="1555224163521" class="icon" style="" viewBox="0 0 1024 1024" version="1.1" xmlns="http://www.w3.org/2000/svg" p-id="7393" xmlns:xlink="http://www.w3.org/1999/xlink" width="200" height="200"><defs><style type="text/css"></style></defs><path d="M388.898823 507.520989c-22.227234 0-39.808658 18.577101-39.808658 41.800012 0 23.554462 17.582447 42.794665 39.808658 42.794665s40.141232-19.241226 40.141232-42.794665C429.039032 526.098089 411.125033 507.520989 388.898823 507.520989z" p-id="7394" fill="#3D91FF"></path><path d="M225.677391 528.089443l-40.804335 0 0 59.050907 40.804335 0c16.58677 0 29.192879-12.938684 29.192879-30.188556C254.87027 540.364001 242.265184 528.089443 225.677391 528.089443z" p-id="7395" fill="#3D91FF"></path><path d="M248.899278 461.740316c0-16.58677-10.94733-28.198226-27.866674-28.198226l-36.159548 0 0 58.054207 36.159548 0C237.951949 491.597321 248.899278 478.32811 248.899278 461.740316z" p-id="7396" fill="#3D91FF"></path><path d="M512.966513 577.519226c0 12.93766 7.962346 21.563108 22.227234 21.563108 13.600763 0 25.544793-10.615779 27.535123-16.256242l0-22.558785c0 0-10.285251-4.643764-22.558785-4.643764C522.588661 555.624567 512.966513 563.91744 512.966513 577.519226z" p-id="7397" fill="#3D91FF"></path><path d="M770.589988 63.83998 251.362376 63.83998c-104.131639 0-188.546214 84.414575-188.546214 188.546214l0 519.226588c0 104.131639 84.414575 188.546214 188.546214 188.546214l519.227612 0c104.131639 0 188.546214-84.414575 188.546214-188.546214L959.136202 252.386194C959.136202 148.254555 874.721627 63.83998 770.589988 63.83998zM228.663398 626.285906l-80.281441 0c-3.64911 0-6.303566-2.986007-6.303566-6.302543L142.078391 400.367527c0-3.317559 2.653433-6.302543 6.303566-6.302543l75.969229 0c39.47813 0 69.998237 26.539446 69.998237 61.372789 0 24.880667-15.923668 43.12724-33.174564 51.751664l0 1.658779c19.241226 6.634094 39.809681 22.227234 39.809681 53.410444C300.983517 599.414909 269.136182 626.285906 228.663398 626.285906zM388.898823 629.935016c-43.12724 0-78.291111-36.823674-78.291111-80.614016 0-43.12724 35.164894-79.618339 78.291111-79.618339 43.458791 0 78.623685 36.491099 78.623685 79.618339C467.521484 593.111343 432.35659 629.935016 388.898823 629.935016zM602.537528 618.987686c0 3.980661-3.317559 7.29822-7.299243 7.29822l-11.277858 0c-2.654456 0-4.644787-0.995677-6.635117-5.308913l-4.313236-10.284227c-8.955976 8.626471-24.217564 19.24225-48.101531 19.24225-30.521131 0-51.752688-19.572778-51.752688-52.41579 0-27.203572 22.227234-48.103578 61.040215-48.103578 15.591093 0 29.526477 4.313236 29.526477 4.313236 0.663102-19.573801-4.976338-28.862351-21.231557-28.862351-13.934361 0-34.171264 2.986007-43.12724 5.640464-4.976338 1.658779-7.962346-1.990331-8.626471-6.635117l-3.317559-17.249873c-1.327228-5.640464 1.658779-8.292873 4.976338-9.28855 3.317559-1.327228 27.535123-7.629771 52.416813-7.629771 47.76998 0 57.722656 24.879644 57.722656 66.679655L602.537528 618.987686zM712.011848 510.506996c-3.64911-1.658779-7.299243-2.986007-14.265912-2.986007-16.58677 0-26.538423 10.615779-29.191856 15.923668l0 95.54303c0 5.63944-3.64911 7.29822-8.626471 7.29822l-25.544793 0c-3.647063 0-7.297197-3.317559-7.297197-7.29822L627.08562 480.31844c0-4.313236 3.64911-7.299243 7.297197-7.299243l12.275581 0c3.64911 0 5.308913 1.658779 6.635117 4.976338l5.638417 14.927991c5.308913-7.629771 19.572778-23.220864 43.12724-23.220864 18.24555 0 33.175587 4.975315 28.862351 14.927991l-9.953699 22.558785C719.309044 510.838547 715.660958 512.165776 712.011848 510.506996zM879.873973 618.987686c0 3.980661-3.317559 7.29822-7.299243 7.29822l-12.273535 0c-3.64911 0-5.972015-2.986007-7.299243-7.29822l-3.981684-11.943007c0 0-17.582447 22.890336-50.091862 22.890336-41.800012 0-73.315796-33.837666-73.315796-80.282464 0-44.786019 30.189579-79.94989 75.970252-79.94989 15.259542 0 29.855982 3.648087 36.82265 6.302543l0-74.642001c0-3.64911 3.64911-7.29822 7.299243-7.29822l26.869974 0c3.981684 0 7.299243 3.648087 7.299243 7.29822L879.873973 618.987686z" p-id="7398" fill="#3D91FF"></path><path d="M768.407276 549.652552c0 21.563108 12.275581 42.463114 36.159548 42.463114 19.906375 0 30.521131-12.606109 33.838689-21.231557l0-54.737672c0 0-12.607132-8.625448-31.848359-8.625448C781.346983 507.520989 768.407276 528.089443 768.407276 549.652552z" p-id="7399" fill="#3D91FF"></path></svg>