<?xml version="1.0" standalone="no"?><!DOCTYPE svg PUBLIC "-//W3C//DTD SVG 1.1//EN" "http://www.w3.org/Graphics/SVG/1.1/DTD/svg11.dtd"><svg t="1552387085678" class="icon" style="" viewBox="0 0 1024 1024" version="1.1" xmlns="http://www.w3.org/2000/svg" p-id="2988" xmlns:xlink="http://www.w3.org/1999/xlink" width="200" height="200"><defs><style type="text/css"></style></defs><path d="M900.266667 145.92c-41.813333-5.12-75.093333-8.533333-92.16-9.386667v-34.133333a59.904 59.904 0 0 0-60.586667-58.88H126.293333a59.904 59.904 0 0 0-60.586666 58.88v808.96a60.074667 60.074667 0 0 0 60.586666 59.733333h600.746667l68.266667 9.386667a65.450667 65.450667 0 0 0 61.44-40.106667c17.066667-41.813333 101.546667-722.773333 101.546666-722.773333a66.56 66.56 0 0 0-58.026666-71.68z m-407.893334 494.933333h-256a85.333333 85.333333 0 0 1 0-170.666666h256a85.333333 85.333333 0 0 1 0 170.666666z m85.333334-256h-341.333334a85.333333 85.333333 0 0 1 0-170.666666h341.333334a85.333333 85.333333 0 0 1 0 170.666666z m320-139.093333l-89.6 643.413333V202.24a325.546667 325.546667 0 0 1 91.306666 11.946667 86.698667 86.698667 0 0 1-1.706666 31.573333z" fill="" p-id="2989"></path></svg>