<?xml version="1.0" standalone="no"?><!DOCTYPE svg PUBLIC "-//W3C//DTD SVG 1.1//EN" "http://www.w3.org/Graphics/SVG/1.1/DTD/svg11.dtd"><svg t="1552736214794" class="icon" style="" viewBox="0 0 1024 1024" version="1.1" xmlns="http://www.w3.org/2000/svg" p-id="2501" xmlns:xlink="http://www.w3.org/1999/xlink" width="200" height="200"><defs><style type="text/css"></style></defs><path d="M907.264 105.472H116.736c-71.68 0-112.64 30.72-112.64 94.208v625.664c0 62.464 40.96 94.208 112.64 94.208h791.552c71.68 0 111.616-31.744 111.616-94.208V199.68c0-62.464-39.936-94.208-112.64-94.208z m-50.176 94.208L512 498.688 166.912 199.68h690.176z m50.176 624.64H116.736v-80.896l240.64-209.92-51.2-44.032L116.736 655.36V244.736l345.088 300.032-10.24 9.216 50.176 44.032 10.24-9.216 10.24 9.216 51.2-44.032-10.24-11.264 345.088-299.008V655.36L716.8 489.472l-50.176 44.032 240.64 209.92V824.32z" p-id="2502"></path></svg>