<?xml version="1.0" standalone="no"?><!DOCTYPE svg PUBLIC "-//W3C//DTD SVG 1.1//EN" "http://www.w3.org/Graphics/SVG/1.1/DTD/svg11.dtd"><svg t="1558119399865" class="icon" style="" viewBox="0 0 1024 1024" version="1.1" xmlns="http://www.w3.org/2000/svg" p-id="4607" xmlns:xlink="http://www.w3.org/1999/xlink" width="200" height="200"><defs><style type="text/css"></style></defs><path d="M853.98887 41.082539c-56.587864-43.968352-102.921994-83.008254-231.343845 53.103644l241.169283 187.211076C965.61786 124.682491 926.67742 97.538464 853.98887 41.082539L853.98887 41.082539zM524.651482 211.698663c-2.299808 2.957476-334.527688 438.371228-334.527688 438.371228-47.320632 58.558838-114.555003 347.410064-84.026218 371.135842 30.59374 23.693301 287.799769-109.198257 332.951517-175.478604 0 0 333.04895-436.399239 335.678607-439.849966 11.928351-15.60845 22.937186-30.363353 33.255874-44.329663L558.827888 168.125115C547.885024 181.630652 536.580848 196.090213 524.651482 211.698663L524.651482 211.698663z" p-id="4608"></path></svg>