<?xml version="1.0" standalone="no"?><!DOCTYPE svg PUBLIC "-//W3C//DTD SVG 1.1//EN" "http://www.w3.org/Graphics/SVG/1.1/DTD/svg11.dtd"><svg t="1552387837688" class="icon" style="" viewBox="0 0 1195 1024" version="1.1" xmlns="http://www.w3.org/2000/svg" p-id="3708" xmlns:xlink="http://www.w3.org/1999/xlink" width="233.3984375" height="200"><defs><style type="text/css"></style></defs><path d="M645.125973 5.12a51.2 51.2 0 0 0-54.613333 6.826667L291.845973 256H52.91264a53.76 53.76 0 0 0-36.693333 14.506667 54.613333 54.613333 0 0 0-16.213334 36.693333v409.6a47.786667 47.786667 0 0 0 15.36 35.84 49.493333 49.493333 0 0 0 36.693334 15.36h240.64l297.813333 244.053333a52.906667 52.906667 0 0 0 33.28 11.946667 48.64 48.64 0 0 0 21.333333-5.12 50.346667 50.346667 0 0 0 29.866667-46.08V51.2a48.64 48.64 0 0 0-29.866667-46.08z m363.52 105.813333a52.906667 52.906667 0 0 0-71.68 14.506667 51.2 51.2 0 0 0 15.36 70.826667A371.2 371.2 0 0 1 1091.419307 512a376.32 376.32 0 0 1-133.12 315.733333 50.346667 50.346667 0 0 0-14.506667 70.826667 51.2 51.2 0 0 0 43.52 23.04 53.76 53.76 0 0 0 29.013333-8.533333A477.866667 477.866667 0 0 0 1194.67264 512a467.626667 467.626667 0 0 0-186.026667-401.066667z m-162.133333 150.186667a51.2 51.2 0 0 0-44.373333 92.16A170.666667 170.666667 0 0 1 883.205973 512a170.666667 170.666667 0 0 1-75.093333 162.133333 51.2 51.2 0 0 0 23.04 93.866667 53.76 53.76 0 0 0 22.186667-5.12 274.773333 274.773333 0 0 0 133.12-256 266.24 266.24 0 0 0-139.946667-245.76z" p-id="3709"></path></svg>