<?xml version="1.0" standalone="no"?><!DOCTYPE svg PUBLIC "-//W3C//DTD SVG 1.1//EN" "http://www.w3.org/Graphics/SVG/1.1/DTD/svg11.dtd"><svg t="1558027060838" class="icon" style="" viewBox="0 0 1024 1024" version="1.1" xmlns="http://www.w3.org/2000/svg" p-id="1990" xmlns:xlink="http://www.w3.org/1999/xlink" width="200" height="200"><defs><style type="text/css"></style></defs><path d="M754.855238 326.383857H269.596317l-39.068527 122.100436-0.270933 28.664702a59.948424 59.948424 0 0 0 119.896848 0 13.58277 13.58277 0 0 1 13.58277-13.600832h1.119856a13.600833 13.600833 0 0 1 13.600833 13.600832 59.948424 59.948424 0 0 0 119.878786 0 13.600833 13.600833 0 0 1 13.58277-13.600832h0.270933a13.600833 13.600833 0 0 1 13.58277 13.600832 59.9123 59.9123 0 1 0 119.8246 0 13.58277 13.58277 0 0 1 13.58277-13.600832h1.101794a13.58277 13.58277 0 0 1 13.58277 13.600832 59.876175 59.876175 0 1 0 119.752351 0l-0.126436-28.032526zM274.400861 265.785194h477.076746v33.41506H274.400861z" fill="#ffffff" p-id="1991"></path><path d="M512.009031 13.293775C236.61475 13.293775 13.293775 236.61475 13.293775 511.990969S236.61475 1010.706225 512.009031 1010.706225 1010.706225 787.511686 1010.706225 511.990969 787.511686 13.293775 512.009031 13.293775z m308.863528 463.801034a87.132027 87.132027 0 0 1-161.223149 45.823788 87.059778 87.059778 0 0 1-147.712628 0.650239 87.059778 87.059778 0 0 1-147.712627-0.650239 87.023654 87.023654 0 0 1-74.054998 41.290177 88.504754 88.504754 0 0 1-22.433246-2.926076v196.986295h486.595523v-172.223026a13.600833 13.600833 0 0 1 27.183603 0v185.805796a13.600833 13.600833 0 0 1-13.58277 13.600833H254.117016a13.58277 13.58277 0 0 1-13.58277-13.600833V554.509375a13.998201 13.998201 0 0 1 1.047607-5.201912 87.041716 87.041716 0 0 1-38.490537-72.248779v-0.126435l0.252871-30.814104a14.449756 14.449756 0 0 1 0.650239-4.027869l42.789339-133.551867a9.283968 9.283968 0 0 1 0.451555-1.22823V252.148237a13.600833 13.600833 0 0 1 13.58277-13.600833h504.314537a13.58277 13.58277 0 0 1 13.58277 13.600833v59.352372L820.023636 442.830826a11.776551 11.776551 0 0 1 0.650239 4.027869l0.198684 30.163865z" fill="#ffffff" p-id="1992"></path></svg>