<?xml version="1.0" standalone="no"?><!DOCTYPE svg PUBLIC "-//W3C//DTD SVG 1.1//EN" "http://www.w3.org/Graphics/SVG/1.1/DTD/svg11.dtd"><svg t="1555603392678" class="icon" style="" viewBox="0 0 1024 1024" version="1.1" xmlns="http://www.w3.org/2000/svg" p-id="6248" xmlns:xlink="http://www.w3.org/1999/xlink" width="200" height="200"><defs><style type="text/css"></style></defs><path d="M661.333333 597.333333l-34.133333 0-12.8-12.8c42.666667-46.933333 68.266667-110.933333 68.266667-179.2C682.666667 251.733333 558.933333 128 405.333333 128 251.733333 128 128 251.733333 128 405.333333S251.733333 682.666667 405.333333 682.666667c68.266667 0 132.266667-25.6 179.2-68.266667l12.8 12.8 0 34.133333 213.333333 213.333333 64-64L661.333333 597.333333zM405.333333 597.333333C298.666667 597.333333 213.333333 512 213.333333 405.333333S298.666667 213.333333 405.333333 213.333333C512 213.333333 597.333333 298.666667 597.333333 405.333333S512 597.333333 405.333333 597.333333z" p-id="6249"></path></svg>