<?xml version="1.0" standalone="no"?><!DOCTYPE svg PUBLIC "-//W3C//DTD SVG 1.1//EN" "http://www.w3.org/Graphics/SVG/1.1/DTD/svg11.dtd"><svg t="1554189869818" class="icon" style="" viewBox="0 0 1024 1024" version="1.1" xmlns="http://www.w3.org/2000/svg" p-id="1882" xmlns:xlink="http://www.w3.org/1999/xlink" width="200" height="200"><defs><style type="text/css"></style></defs><path d="M901.447 965.777h-327.13c-17.229 0-33.618-6.253-44.962-17.157-12.899-12.4-18.007-29.563-13.662-45.908l120.653-453.729c2.851-10.726 10.023-20.195 20.192-26.663 9.193-5.849 20.141-8.939 31.653-8.939h101.299c11.755 0 22.929 3.154 32.313 9.123 10.355 6.587 17.657 16.223 20.557 27.131l119.916 450.96c4.482 16.859-0.796 34.569-14.119 47.377-11.775 11.315-28.799 17.805-46.709 17.805zM739.009 381.245c-83.51 0-151.45-67.939-151.45-151.45s67.94-151.449 151.45-151.449 151.45 67.94 151.45 151.449-67.94 151.45-151.45 151.45zM335.807 965.777h-101.3c-11.754 0-22.928-3.154-32.311-9.122-10.355-6.587-17.655-16.222-20.557-27.129l-119.916-450.963c-4.483-16.858 0.795-34.567 14.121-47.377 11.773-11.316 28.798-17.806 46.709-17.806h327.13c17.23 0 33.618 6.253 44.962 17.157 12.901 12.401 18.009 29.563 13.663 45.908l-120.654 453.73c-2.853 10.726-10.023 20.193-20.192 26.662-9.197 5.849-20.142 8.94-31.654 8.94zM284.99 381.245c-83.51 0-151.45-67.939-151.45-151.45s67.94-151.449 151.45-151.449 151.45 67.94 151.45 151.449-67.94 151.45-151.45 151.45z" p-id="1883" fill="#515151"></path></svg>