<?xml version="1.0" standalone="no"?><!DOCTYPE svg PUBLIC "-//W3C//DTD SVG 1.1//EN" "http://www.w3.org/Graphics/SVG/1.1/DTD/svg11.dtd"><svg t="1558115243225" class="icon" style="" viewBox="0 0 1024 1024" version="1.1" xmlns="http://www.w3.org/2000/svg" p-id="3800" xmlns:xlink="http://www.w3.org/1999/xlink" width="200" height="200"><defs><style type="text/css"></style></defs><path d="M848 269.3c-156.8 0-276.3-33.6-336-89.6-63.5 56-179.2 89.6-336 89.6-22.4 0-37.3-14.9-37.3-37.3s14.9-37.3 37.3-37.3c205.3 0 272.5-56 294.9-78.4 0 0 3.7-3.7 3.7-7.5v-7.5c0-22.4 14.9-37.3 37.3-37.3 18.7 0 37.3 14.9 37.3 37.3v3.7c3.7 3.7 3.7 7.5 3.7 7.5 22.4 26.1 89.6 82.1 294.9 82.1 22.4 0 37.3 14.9 37.3 37.3 0.2 22.5-14.7 37.4-37.1 37.4z m-317.3 687c-7.5 3.7-11.2 3.7-18.7 3.7s-11.2 0-18.7-3.7c-22.4-7.5-41.1-14.9-59.7-22.4C243.2 863 142.4 747.2 138.7 545.6V400c0-22.4 14.9-37.3 37.3-37.3s37.3 14.9 37.3 37.3v145.6c3.7 168 82.1 257.6 246.4 321.1 14.9 7.5 33.6 11.2 52.3 18.7 18.7-7.5 33.6-11.2 52.3-18.7C728.6 803.2 807 713.6 810.7 545.6V400c0-22.4 14.9-37.3 37.3-37.3s37.3 14.9 37.3 37.3v149.3c-3.7 201.6-104.5 317.3-294.9 388.3-18.7 3.7-37.3 11.2-59.7 18.7z m0 0" p-id="3801" fill="#5293B1"></path><path d="M463.5 321.6l82.1-7.5c3.7 11.2 7.5 26.1 14.9 44.8h171.7v89.6H665v-37.3H358.9v37.3h-67.2v-89.6h182.9c-3.7-14.9-7.4-29.8-11.1-37.3zM325.3 709.9V456h153.1v-37.3h67.2V456h153.1v253.9h-63.5v-22.4h-89.6v93.3h-67.2v-93.3h-89.6v22.4h-63.5z m309.9-201.6h-89.6v41.1h89.6v-41.1z m-246.4 41h89.6v-41.1h-89.6v41.1z m0 89.6h89.6v-41.1h-89.6v41.1z m156.8 0h89.6v-41.1h-89.6v41.1z m0 0" p-id="3802" fill="#5293B1"></path></svg>