<?xml version="1.0" standalone="no"?><!DOCTYPE svg PUBLIC "-//W3C//DTD SVG 1.1//EN" "http://www.w3.org/Graphics/SVG/1.1/DTD/svg11.dtd"><svg t="1555602738958" class="icon" style="" viewBox="0 0 1024 1024" version="1.1" xmlns="http://www.w3.org/2000/svg" p-id="5494" xmlns:xlink="http://www.w3.org/1999/xlink" width="200" height="200"><defs><style type="text/css"></style></defs><path d="M544.9 118.1L644 318.9c7.9 16.1 23.3 27.2 41 29.8l221.6 32.2c29.1 4.2 40.8 40 19.7 60.6L765.9 597.8a54.615 54.615 0 0 0-15.7 48.2l37.9 220.7c5 29-25.5 51.1-51.5 37.4L538.3 799.9c-15.9-8.3-34.8-8.3-50.7 0L289.5 904.1c-26.1 13.7-56.5-8.4-51.5-37.4L275.8 646c3-17.7-2.8-35.7-15.7-48.2L99.8 441.5c-21.1-20.5-9.4-56.4 19.7-60.6l221.6-32.2c17.7-2.6 33.1-13.7 41-29.8l99.1-200.8c13-26.4 50.6-26.4 63.7 0z" p-id="5495"></path></svg>