<?xml version="1.0" standalone="no"?><!DOCTYPE svg PUBLIC "-//W3C//DTD SVG 1.1//EN" "http://www.w3.org/Graphics/SVG/1.1/DTD/svg11.dtd"><svg t="1555223467712" class="icon" style="" viewBox="0 0 1225 1024" version="1.1" xmlns="http://www.w3.org/2000/svg" p-id="5839" xmlns:xlink="http://www.w3.org/1999/xlink" width="239.2578125" height="200"><defs><style type="text/css"></style></defs><path d="M 776.749 658.094 a 785.517 785.517 0 0 0 -138.964 -51.6008 a 302.677 302.677 0 0 0 153.031 -262.897 c 0 -166.782 -135.702 -302.484 -302.484 -302.484 S 185.918 176.814 185.918 343.596 a 302.642 302.642 0 0 0 149.961 261.126 a 754.385 754.385 0 0 0 -134.176 48.3735 c -57.2309 27.0632 -158.17 84.6625 -191.337 166.536 c -21.6962 53.5301 -9.08538 106.797 35.4646 149.997 c 15.0137 14.5401 46.3916 31.0096 165.291 42.8662 c 73.4548 7.31391 168.588 11.4006 267.861 11.5058 h 3.7008 c 98.2204 0 193.021 -3.91128 267.177 -11.0673 c 122.232 -11.7864 156.574 -28.975 171.78 -40.8842 c 49.1102 -38.4638 66.176 -88.6439 48.0227 -141.279 c -28.5365 -82.6805 -133.036 -143.682 -192.915 -172.675 Z" fill="#DEAD9F" p-id="5840"></path><path d="M 1220.74 775.239 c -26.9931 -97.6942 -178.112 -187.005 -324.127 -225.24 a 294.293 294.293 0 0 0 75.8752 -73.1566 A 315.305 315.305 0 0 0 1031.31 293.714 C 1031.31 131.756 899.524 0 737.583 0 a 26.309 26.309 0 0 0 0 52.6181 C 870.514 52.6181 978.697 160.766 978.697 293.714 c 0 113.024 -71.2273 212.226 -173.236 241.219 a 26.309 26.309 0 0 0 1.38561 50.9694 h 0.26309 c 0.631417 0.140315 1.28037 0.245551 1.92933 0.333247 l 0.526181 0.105236 c 77.2608 9.76942 162.239 38.3761 233.133 78.4886 c 70.0346 39.6039 116.444 84.9431 127.318 124.354 c 4.64793 16.8202 6.54218 42.5329 -30.3255 71.4027 c -2.36781 1.85917 -17.3289 11.5584 -79.997 20.942 a 26.309 26.309 0 0 0 3.84112 52.3199 a 27.0808 27.0808 0 0 0 3.92881 -0.28063 c 71.3325 -10.6639 93.9057 -23.1169 104.657 -31.5708 C 1228.91 857.569 1229.9 808.564 1220.74 775.239 Z" fill="#DEAD9F" p-id="5841"></path></svg>