<?xml version="1.0" standalone="no"?><!DOCTYPE svg PUBLIC "-//W3C//DTD SVG 1.1//EN" "http://www.w3.org/Graphics/SVG/1.1/DTD/svg11.dtd"><svg t="1552737282652" class="icon" style="" viewBox="0 0 1024 1024" version="1.1" xmlns="http://www.w3.org/2000/svg" p-id="4723" xmlns:xlink="http://www.w3.org/1999/xlink" width="200" height="200"><defs><style type="text/css"></style></defs><path d="M114.285714 36.571429c-42.921143 0-77.714286 34.793143-77.714285 77.714285v795.428572c0 42.921143 34.793143 77.714286 77.714285 77.714285h795.428572c42.921143 0 77.714286-34.793143 77.714285-77.714285V114.285714c0-42.921143-34.793143-77.714286-77.714285-77.714285H114.285714z m0-36.571429h795.428572c63.117714 0 114.285714 51.168 114.285714 114.285714v795.428572c0 63.117714-51.168 114.285714-114.285714 114.285714H114.285714c-63.117714 0-114.285714-51.168-114.285714-114.285714V114.285714C0 51.168 51.168 0 114.285714 0z" p-id="4724"></path><path d="M733.714286 512l-411.428572 205.714286V306.285714z" p-id="4725"></path></svg>