<?xml version="1.0" standalone="no"?><!DOCTYPE svg PUBLIC "-//W3C//DTD SVG 1.1//EN" "http://www.w3.org/Graphics/SVG/1.1/DTD/svg11.dtd"><svg t="1558109955145" class="icon" style="" viewBox="0 0 1024 1024" version="1.1" xmlns="http://www.w3.org/2000/svg" p-id="2034" xmlns:xlink="http://www.w3.org/1999/xlink" width="200" height="200"><defs><style type="text/css"></style></defs><path d="M817.552 898.4a55.36 55.36 0 0 1-55.216 55.216H264.992A55.36 55.36 0 0 1 209.76 898.4v-27.664h607.904l-0.112 27.664zM209.648 124.848a55.376 55.376 0 0 1 55.232-55.232h497.328a55.392 55.392 0 0 1 55.248 55.232v27.648H209.648V124.848z" fill="#ffffff" p-id="2035"></path><path d="M817.552 262.96V152.384H209.648v110.576a247.68 247.68 0 0 0 248.672 248.672A247.68 247.68 0 0 0 209.648 760.32v110.544h607.904V760.32a247.68 247.68 0 0 0-248.672-248.688A247.68 247.68 0 0 0 817.552 262.96z m-110.544-2.768c0 11.056 0 22.128-2.768 30.432H322.88c-2.768-11.072-2.768-22.144-2.768-30.432V180.048H706.88v80.128h0.128z" fill="#ffffff" p-id="2036"></path></svg>