<?xml version="1.0" standalone="no"?><!DOCTYPE svg PUBLIC "-//W3C//DTD SVG 1.1//EN" "http://www.w3.org/Graphics/SVG/1.1/DTD/svg11.dtd"><svg t="1558000554755" class="icon" style="" viewBox="0 0 1024 1024" version="1.1" xmlns="http://www.w3.org/2000/svg" p-id="2122" xmlns:xlink="http://www.w3.org/1999/xlink" width="200" height="200"><defs><style type="text/css"></style></defs><path d="M355 384.6m-263.6 0a263.6 263.6 0 1 0 527.2 0 263.6 263.6 0 1 0-527.2 0Z" fill="#FFC839" p-id="2123"></path><path d="M611.4 167.3s1.9 0.1 1.9 1.9v699.4c0 1.3-1.1 1.7-2 1.7-0.3 0-0.5 0-0.7-0.1l-350.1-175c-9.2-4.6-19.5-7-29.8-7H98.6c-1 0-1.9-0.8-1.9-1.8V377c0-1 0.8-1.9 1.9-1.9h131.1c11.6 0 23-3 33.1-8.8l347.8-198.7c0.4-0.3 0.7-0.3 0.8-0.3m0-32.3c-5.7 0-11.5 1.4-16.9 4.6L246.7 338.3c-5.2 3-11 4.5-17 4.5H98.6c-18.9 0-34.2 15.3-34.2 34.2v309.3c0 18.9 15.3 34.2 34.2 34.2h132.1c5.3 0 10.6 1.2 15.3 3.6l350.1 175.1c5 2.5 10.2 3.7 15.3 3.7 18 0 34.3-14.4 34.3-34.3V169.2c0-19.9-16.4-34.2-34.3-34.2zM727.6 667.6c-6.3 0-12.3-3.7-14.9-9.8-3.5-8.2 0.3-17.8 8.6-21.3 47.5-20.2 78.2-66.6 78.2-118.3 0-52-31-98.6-79-118.7-8.2-3.5-12.1-12.9-8.7-21.2 3.5-8.3 12.9-12.1 21.2-8.7 60.1 25.1 98.9 83.4 98.9 148.6 0 64.6-38.4 122.8-97.9 148.1-2.1 0.9-4.2 1.3-6.4 1.3z" fill="#404041" p-id="2124"></path><path d="M770.6 788.4c-6.5 0-12.5-3.9-15.1-10.2-3.3-8.3 0.8-17.7 9.1-21 98.8-38.9 162.6-132.7 162.6-238.9 0-107.5-67.8-204.4-168.8-241.2-8.4-3.1-12.7-12.4-9.7-20.8 3.1-8.4 12.4-12.7 20.8-9.7C883.2 288 959.6 397.2 959.6 518.3c0 119.6-71.9 225.2-183.1 269-1.9 0.7-3.9 1.1-5.9 1.1z" fill="#404041" p-id="2125"></path></svg>