<?xml version="1.0" standalone="no"?><!DOCTYPE svg PUBLIC "-//W3C//DTD SVG 1.1//EN" "http://www.w3.org/Graphics/SVG/1.1/DTD/svg11.dtd"><svg t="1557996026692" class="icon" style="" viewBox="0 0 1024 1024" version="1.1" xmlns="http://www.w3.org/2000/svg" p-id="4831" xmlns:xlink="http://www.w3.org/1999/xlink" width="200" height="200"><defs><style type="text/css"></style></defs><path d="M0 512a512 512 0 1 0 1024 0A512 512 0 1 0 0 512z" fill="#FDEBED" p-id="4832"></path><path d="M718.08 683.52c-5.12 6.4-11.52 8.96-19.2 8.96H547.84c0 20.48-16.64 35.84-35.84 35.84s-35.84-16.64-35.84-35.84H325.12c-12.8 0-24.32-10.24-24.32-24.32 0-2.56 0-3.84 1.28-6.4 12.8-25.6 21.76-53.76 28.16-81.92V473.6c1.28-98.56 81.92-179.2 181.76-179.2 99.84 0 180.48 80.64 180.48 180.48v106.24c7.68 28.16 17.92 55.04 28.16 81.92 3.84 7.68 1.28 15.36-2.56 20.48z" fill="#1C76EE" p-id="4833" data-spm-anchor-id="a313x.7781069.0.i7" class="selected"></path></svg>